<?xml version="1.0" encoding="utf-8"?>
<!-- Generator: Adobe Illustrator 22.1.0, SVG Export Plug-In . SVG Version: 6.00 Build 0)  -->
<svg version="1.1" id="Calque_1" xmlns="http://www.w3.org/2000/svg" xmlns:xlink="http://www.w3.org/1999/xlink" x="0px" y="0px"
	 viewBox="0 0 500 500" style="enable-background:new 0 0 500 500;" xml:space="preserve">
<style type="text/css">
	.st0{display:none;}
	.st1{display:inline;}
	.st2{fill:#283B89;}
	.st3{fill:#CF2027;}
</style>
<g class="st0">
	<g class="st1">
		<path class="st2" d="M250.1,316.4l-57.5-50.4L28,407.1c6,5.5,14.1,9,23,9h398.1c8.9,0,16.9-3.5,22.9-9l-164.4-141L250.1,316.4z"/>
		<path class="st2" d="M472.1,92.9c-6-5.6-14-9-23-9H51c-8.9,0-16.9,3.5-22.9,9.1l222,190.2L472.1,92.9z"/>
		<polygon class="st2" points="17.5,113.1 17.5,389 178.1,252.6 		"/>
		<polygon class="st2" points="322,252.6 482.6,389 482.6,113 		"/>
	</g>
</g>
<g>
	<path class="st2" d="M299.6,144.5c21.7,0,39.3-23.7,39.3-52.8c0-29.1-17.6-52.8-39.3-52.8c-21.7,0-39.3,23.7-39.3,52.8
		C260.3,120.8,277.9,144.5,299.6,144.5z"/>
	<path class="st2" d="M416.2,195.8c-0.8-1.1-1.6-2.1-2-3c-8.8-18.8-32.9-41-71.9-41.6l-1.5,0c-22,0-39.3,6.9-51.8,16.5
		c11.9,12.5,19.5,32,19.5,53.7c0,19.5-6.1,37.1-15.9,49.6c5.6-2.1,11.3-5.6,17.4-9.3c6.3-3.9,12.9-7.9,20.1-10.9
		c0.8-0.3,4.1-0.7,9.6-0.7c6.5,0,11.1,0.6,12.1,0.9c7.1,3.1,13.3,7.2,19.3,11.2c9.2,6.1,17.9,11.8,27.4,11.8c4.1,0,8-1.1,11.7-3.2
		c20.4-11.6,24.3-43.5,8.7-71C418.1,198.4,417.2,197.1,416.2,195.8z"/>
	<path class="st2" d="M383.2,144.5c21.7,0,39.3-23.7,39.3-52.8c0-29.1-17.6-52.8-39.3-52.8c-21.7,0-39.3,23.7-39.3,52.8
		C343.9,120.8,361.5,144.5,383.2,144.5z"/>
	<path class="st2" d="M447.8,117.4c-17.4,0-31,18-31,41c0,23,13.6,41,31,41c17.4,0,31-18,31-41C478.8,135.4,465.2,117.4,447.8,117.4
		z"/>
	<path class="st2" d="M248.3,148.4c7.4,0,14.5,2.2,20.8,6c-1.5-21-14.5-37-30.8-37c-17.4,0-31,18-31,41c0,5.1,0.7,10,1.9,14.5
		C218.6,157.9,232.6,148.4,248.3,148.4z"/>
	<path class="st3" d="M140.8,293.3c28.1,0,51-30.7,51-68.4c0-37.7-22.9-68.4-51-68.4c-28.1,0-51,30.7-51,68.4
		C89.9,262.6,112.7,293.3,140.8,293.3z"/>
	<path class="st3" d="M292,359.8c-1-1.4-2-2.8-2.6-3.9c-11.4-24.4-42.6-53.1-93.2-53.9l-1.9,0c-49.8,0-80.8,27.2-93.2,52.7
		c-0.4,0.9-1.4,2-2.4,3.2c-1.2,1.4-2.4,2.8-3.3,4.4c-10.5,16.3-15.8,34.7-15,51.7c0.8,18.1,8.4,32.6,21.3,40.9
		c5.2,3.3,10.8,5,16.7,5c12.1,0,23.3-6.8,36.1-14.8c8.2-5,16.7-10.3,26-14.2c1.1-0.3,5.4-0.9,12.4-0.9c8.4,0,14.4,0.7,15.7,1.2
		c9.2,4,17.2,9.4,25,14.5c11.9,7.9,23.2,15.3,35.5,15.3c5.3,0,10.3-1.4,15.1-4.1c26.5-15.1,31.5-56.4,11.3-92.1
		C294.4,363.1,293.2,361.4,292,359.8z"/>
	<path class="st3" d="M332.9,258.1c-22.5,0-40.1,23.4-40.1,53.2c0,29.8,17.6,53.2,40.1,53.2c22.5,0,40.2-23.4,40.2-53.2
		C373,281.5,355.4,258.1,332.9,258.1z"/>
	<path class="st3" d="M101.5,311.3c0-29.8-17.6-53.2-40.1-53.2c-22.5,0-40.2,23.4-40.2,53.2c0,29.8,17.6,53.2,40.2,53.2
		S101.5,341.1,101.5,311.3z"/>
	<path class="st3" d="M299,210.6c-2.3-14.8-8.2-27.8-16.4-37.4c-4-4.6-8.5-8.5-13.4-11.3c-6.1-3.5-12.9-5.5-20-5.5
		c-3.5,0-7,0.5-10.4,1.4c-10.8,3-20.3,10.6-27.4,21.2c-8.2,12.1-13.2,28.2-13.2,45.8c0,2.1,0.1,4.1,0.2,6.1
		c2.3,34.9,24.2,62.3,50.7,62.3c6.6,0,12.9-1.7,18.8-4.8c6.6-3.5,12.6-8.9,17.5-15.6c9.1-12.4,14.7-29.3,14.7-48
		C300.1,220,299.7,215.2,299,210.6z"/>
</g>
</svg>
