<?xml version="1.0" encoding="utf-8"?>
<!-- Generator: Adobe Illustrator 22.1.0, SVG Export Plug-In . SVG Version: 6.00 Build 0)  -->
<svg version="1.2" baseProfile="tiny" id="Calque_1"
	 xmlns="http://www.w3.org/2000/svg" xmlns:xlink="http://www.w3.org/1999/xlink" x="0px" y="0px" viewBox="0 0 500 500"
	 xml:space="preserve">
<path display="none" fill="#263C84" d="M249.8,273.8c71.2,0,129-57.8,129-129s-57.8-128.6-129-128.6s-129,57.8-129,128.6
	S178.6,273.8,249.8,273.8z"/>
<path display="none" fill="#263C84" d="M26.6,475.2h448c9.5,0,17-7.5,17-17c0-89-72.4-161.9-161.9-161.9H171.5
	c-89,0-161.9,72.4-161.9,161.9C9.6,467.7,17.1,475.2,26.6,475.2z"/>
<circle display="none" fill="#263C84" cx="250.5" cy="250" r="237.2"/>
<g display="none">
	<g display="inline">
		<path fill="#FFFFFF" d="M195.5,241.3c27.9,0,50.6-30.5,50.6-67.9s-22.7-67.9-50.6-67.9s-50.6,30.5-50.6,67.9
			S167.6,241.3,195.5,241.3z"/>
		<path fill="#FFFFFF" d="M345.6,307.4c-1-1.4-2-2.7-2.6-3.9c-11.3-24.2-42.3-52.8-92.5-53.5l-1.9,0c-49.5,0-80.2,27-92.5,52.3
			c-0.4,0.9-1.4,2-2.4,3.2c-1.2,1.4-2.3,2.8-3.3,4.4c-10.4,16.2-15.7,34.4-14.9,51.3c0.8,17.9,8.3,32.3,21.1,40.6
			c5.2,3.3,10.7,5,16.6,5c12.1,0,23.1-6.8,35.9-14.7c8.1-5,16.5-10.2,25.9-14c1.1-0.3,5.3-0.9,12.3-0.9c8.3,0,14.3,0.7,15.6,1.2
			c9.1,4,17.1,9.3,24.8,14.4c11.9,7.8,23.1,15.2,35.2,15.2c5.2,0,10.3-1.4,15-4.1c26.3-14.9,31.3-55.9,11.2-91.4
			C348,310.6,346.8,309,345.6,307.4z"/>
		<path fill="#FFFFFF" d="M303.1,241.3c27.9,0,50.6-30.5,50.6-67.9s-22.7-67.9-50.6-67.9c-27.9,0-50.6,30.5-50.6,67.9
			S275.2,241.3,303.1,241.3z"/>
		<path fill="#FFFFFF" d="M386.2,206.5c-22.4,0-39.9,23.2-39.9,52.8c0,29.6,17.5,52.8,39.9,52.8s39.9-23.2,39.9-52.8
			C426,229.7,408.5,206.5,386.2,206.5z"/>
		<path fill="#FFFFFF" d="M156.5,259.2c0-29.6-17.5-52.8-39.9-52.8s-39.9,23.2-39.9,52.8c0,29.6,17.5,52.8,39.9,52.8
			S156.5,288.8,156.5,259.2z"/>
	</g>
</g>
<g>
	<path fill="#B12625" d="M474.7,225c0.8-2.1,0.8-4.4,0-6.4c-0.4-1-1.1-2-1.8-2.7L372.1,115c-3.3-3.3-8.6-3.3-11.9,0
		c-3.3,3.3-3.3,8.6,0,11.9l86.5,86.5H265.3c-4.6,0-8.4,3.8-8.4,8.4c0,4.6,3.8,8.4,8.4,8.4h181.4l-86.5,86.5c-3.3,3.3-3.3,8.6,0,11.9
		c1.6,1.6,3.8,2.5,5.9,2.5s4.3-0.8,5.9-2.5l100.8-100.8C473.7,227,474.3,226,474.7,225z"/>
	<path fill="#B12625" d="M324.1,263.8c-4.6,0-8.4,3.8-8.4,8.4v134.4h-84V87.4c0-3.7-2.4-6.9-5.9-8L92.5,36.9h223.2v134.4
		c0,4.6,3.8,8.4,8.4,8.4s8.4-3.8,8.4-8.4V28.5c0-4.6-3.8-8.4-8.4-8.4H38.4c-0.3,0-0.5,0.1-0.8,0.2c-0.5,0-0.9,0.2-1.3,0.3
		c-0.8,0.2-1.5,0.5-2.2,0.9c-0.2,0.1-0.5,0.1-0.7,0.3c-0.3,0.2-0.5,0.4-0.7,0.6c-0.1,0.1-0.3,0.3-0.4,0.4c-0.6,0.7-1.2,1.5-1.5,2.3
		c-0.1,0.2-0.1,0.3-0.2,0.5c-0.4,0.9-0.6,1.9-0.6,2.9v386.5c0,1.1,0.2,2,0.6,3c0.1,0.3,0.3,0.6,0.4,0.9c0.3,0.6,0.7,1.1,1.1,1.6
		c0.2,0.3,0.5,0.5,0.8,0.8c0.5,0.4,1,0.8,1.6,1.1c0.3,0.2,0.6,0.3,0.9,0.5c0.1,0.1,0.3,0.2,0.4,0.2l184.9,58.8
		c0.8,0.3,1.7,0.4,2.5,0.4c1.8,0,3.5-0.6,5-1.6c2.2-1.6,3.4-4.1,3.4-6.8v-50.4h92.4c4.6,0,8.4-3.8,8.4-8.4V272.2
		C332.5,267.6,328.7,263.8,324.1,263.8z M214.9,462.4L46.8,408.9V40l168.1,53.5V462.4z"/>
</g>
</svg>
