<?xml version="1.0" encoding="utf-8"?>
<!-- Generator: Adobe Illustrator 22.1.0, SVG Export Plug-In . SVG Version: 6.00 Build 0)  -->
<svg version="1.2" baseProfile="tiny" id="Calque_1"
	 xmlns="http://www.w3.org/2000/svg" xmlns:xlink="http://www.w3.org/1999/xlink" x="0px" y="0px" viewBox="0 0 500 500"
	 xml:space="preserve">
<path display="none" fill="#263C84" d="M249.8,273.8c71.2,0,129-57.8,129-129s-57.8-128.6-129-128.6s-129,57.8-129,128.6
	S178.6,273.8,249.8,273.8z"/>
<path display="none" fill="#263C84" d="M26.6,475.2h448c9.5,0,17-7.5,17-17c0-89-72.4-161.9-161.9-161.9H171.5
	c-89,0-161.9,72.4-161.9,161.9C9.6,467.7,17.1,475.2,26.6,475.2z"/>
<circle fill="#263C84" cx="250.5" cy="250" r="237.2"/>
<g>
	<g>
		<path fill="#FFFFFF" d="M195.5,241.3c27.9,0,50.6-30.5,50.6-67.9s-22.7-67.9-50.6-67.9s-50.6,30.5-50.6,67.9
			S167.6,241.3,195.5,241.3z"/>
		<path fill="#FFFFFF" d="M345.6,307.4c-1-1.4-2-2.7-2.6-3.9c-11.3-24.2-42.3-52.8-92.5-53.5l-1.9,0c-49.5,0-80.2,27-92.5,52.3
			c-0.4,0.9-1.4,2-2.4,3.2c-1.2,1.4-2.3,2.8-3.3,4.4c-10.4,16.2-15.7,34.4-14.9,51.3c0.8,17.9,8.3,32.3,21.1,40.6
			c5.2,3.3,10.7,5,16.6,5c12.1,0,23.1-6.8,35.9-14.7c8.1-5,16.5-10.2,25.9-14c1.1-0.3,5.3-0.9,12.3-0.9c8.3,0,14.3,0.7,15.6,1.2
			c9.1,4,17.1,9.3,24.8,14.4c11.9,7.8,23.1,15.2,35.2,15.2c5.2,0,10.3-1.4,15-4.1c26.3-14.9,31.3-55.9,11.2-91.4
			C348,310.6,346.8,309,345.6,307.4z"/>
		<path fill="#FFFFFF" d="M303.1,241.3c27.9,0,50.6-30.5,50.6-67.9s-22.7-67.9-50.6-67.9c-27.9,0-50.6,30.5-50.6,67.9
			S275.2,241.3,303.1,241.3z"/>
		<path fill="#FFFFFF" d="M386.2,206.5c-22.4,0-39.9,23.2-39.9,52.8c0,29.6,17.5,52.8,39.9,52.8s39.9-23.2,39.9-52.8
			C426,229.7,408.5,206.5,386.2,206.5z"/>
		<path fill="#FFFFFF" d="M156.5,259.2c0-29.6-17.5-52.8-39.9-52.8s-39.9,23.2-39.9,52.8c0,29.6,17.5,52.8,39.9,52.8
			S156.5,288.8,156.5,259.2z"/>
	</g>
</g>
</svg>
