<svg xmlns="http://www.w3.org/2000/svg" viewBox="0 0 69.83 71.08"><title>patteFichier 2</title><g id="Calque_2" data-name="Calque 2"><g id="Calque_5" data-name="Calque 5"><path d="M55.81,61.32c.08,4.51-3.61,8.87-7.49,9.5a8.83,8.83,0,0,1-6-1c-4.21-2.48-8.34-2.41-12.81-.78a47.83,47.83,0,0,1-10.15,2,8.3,8.3,0,0,1-3.91-.73C11.35,68.76,10,65.67,11,60.58a48.17,48.17,0,0,1,7.93-17.51,35.58,35.58,0,0,1,9.78-10.14c4-2.61,7.74-2.1,11.39.76,5.73,4.47,9.66,10.61,12.8,17.45A29.75,29.75,0,0,1,55.81,61.32Z" fill="#fff"/><path d="M15.92,12.54a17.53,17.53,0,0,1,1.66-8.19C20.18-.83,25.09-1.47,29,2.89a19.94,19.94,0,0,1,4.43,9.69A20.51,20.51,0,0,1,32.51,24,10.51,10.51,0,0,1,32,25.13c-2.58,4.8-7,5.47-10.85,1.59-3.23-3.26-4.53-7.4-5.09-11.84C16,14.11,16,13.32,15.92,12.54Z" fill="#fff"/><path d="M56.26,11.19c-.25,5.86-1.5,10.85-5.07,15a14.38,14.38,0,0,1-3.14,2.67,5.69,5.69,0,0,1-7.95-1.53A11.73,11.73,0,0,1,37.9,21c-.47-6.86,1.22-13,6.36-17.85C48.06-.44,52.65.53,54.85,5.27a8.66,8.66,0,0,1,.72,1.93C55.88,8.69,56.09,10.2,56.26,11.19Z" fill="#fff"/><path d="M51.13,42.73c.31-5.82,2.11-10.77,6.66-14.35a9.74,9.74,0,0,1,3.94-1.86c3.27-.66,5.83,1,7.18,4.21,2.71,6.48-.89,16.62-7.06,20-4.59,2.48-9,.52-10.2-4.59C51.37,44.93,51.28,43.73,51.13,42.73Z" fill="#fff"/><path d="M18.8,37.74a33.2,33.2,0,0,1-.87,4.59C16.22,47.42,11.77,48.89,7.28,46,1.93,42.44-1.28,33.75.49,27.57c1.6-5.59,6.57-7.26,11.32-3.81C15.73,26.61,18.45,32.17,18.8,37.74Z" fill="#fff"/></g></g></svg>