<?xml version="1.0" encoding="utf-8"?>
<!-- Generator: Adobe Illustrator 22.1.0, SVG Export Plug-In . SVG Version: 6.00 Build 0)  -->
<svg version="1.1" id="Calque_1" xmlns="http://www.w3.org/2000/svg" xmlns:xlink="http://www.w3.org/1999/xlink" x="0px" y="0px"
	 viewBox="0 0 500 500" style="enable-background:new 0 0 500 500;" xml:space="preserve">
<style type="text/css">
	.st0{fill-rule:evenodd;clip-rule:evenodd;fill:#283B89;stroke:#283B89;stroke-width:1.39;stroke-miterlimit:10;}
</style>
<g>
	<g>
		<g>
			<path class="st0" d="M249.9,186.3c0.4-7.9,0.3-15.9,3.8-23.4c4.9-10.6,15.1-15.7,26-12.7c10.6,2.9,16,10.7,20.7,19.5
				c2.8,5.2,3.4,10.9,4.7,16.6c1.7,7.2,1.1,14,0,21c-1.1,6.7-3.7,12.8-7.6,18.4c-2.4,3.4-6,4.7-9.8,5.6c-0.8,0.2-2.2-0.6-2.9-1.3
				c-1.8-1.9-3.4-4.1-5.1-6.1c-0.3-0.3-0.7-0.7-1.1-0.7c-3-0.5-6.1-1-9.1-1.5c-3.1-0.6-6.2-1.1-9.3-1.8c-0.4-0.1-0.9-0.6-1.2-1
				c-0.4-0.6-0.8-1.2-1.1-1.8C253.5,207.2,249.2,197.4,249.9,186.3z M269.7,199.2c-0.1,1.1-0.1,2.1-0.2,3.2c-0.4,4.1,1,7.9,2.7,11.5
				c1.2,2.5,5,4.4,6.3,3c2.5-2.7,5.6-5.3,5.7-9.4c0.1-6.7-0.2-13.5-0.5-20.2c-0.1-1.7-3.7-5.2-5.4-5.4c-2-0.2-3.6,0.4-4.8,2.2
				C270.5,188.7,269.6,193.8,269.7,199.2z"/>
			<path class="st0" d="M161.8,120.9c12,1.3,24.6,2.5,37.2,4.4c3.5,0.5,6.7,3.1,10,4.8c0.9,0.4,1.7,0.9,2.6,1.3
				c3.8,1.7,7.7,3.3,11.4,5.2c2.2,1.1,2.1,2.8,0.2,4.4c-9,7.7-18.5,14.9-25.2,24.9c-0.9,1.3-1.8,2.5-2.6,3.7
				c-1.8,2.9-3.6,5.8-5.3,8.8c-0.9,1.6-1.9,3.2-2.7,4.8c-2,3.9-3.8,7.9-5.8,11.7c-0.4,0.8-2.1,1.7-2.6,1.5c-0.9-0.5-1.9-1.9-1.8-2.8
				c0.6-4.1-1.1-7.7-2.1-11.5c-0.1-0.4-0.2-1.1-0.4-1.2c-3.5-1.7-3.2-5.5-4.6-8.3c-4.3-8.5-8.5-17.1-12.8-25.6
				c-0.4-0.9-1.2-1.6-1.8-2.3c-3.7-4.3-7.4-8.7-11.2-13c-0.7-0.8-2.1-0.9-3-1.6c-0.9-0.8-2.1-1.9-2.1-2.9c0-0.8,1.4-2.2,2.3-2.4
				C148,123.4,154.5,122.3,161.8,120.9z"/>
			<path class="st0" d="M315.2,259.9c-0.2,6.4-2.1,12.4-6.3,17.2c-4.1,4.6-8.9,8.8-13.8,12.5c-8,6-17.2,8.7-27.2,8.7
				c-3.3,0-3.2-0.6-4-3.6c-0.9-3.2-2.9-6.2-4.5-9.1c-0.2-0.4-1.4-0.4-2.1-0.3c-3.4,0.5-6.9,1.1-10.2,1.8c-1.7,0.4-3.4,1.2-4.9,2
				c-1.8,1-3.2,1.3-4.7-0.5c-0.6-0.7-1.9-1.5-2.8-1.4c-3.7,0.7-7.5,1.4-11,2.8c-1.7,0.7-3.1,1.1-4.7,0.4c-3.2-1.4-6.5-2.5-9.5-4.3
				c-4.7-2.8-8.2-6.8-9.8-12.2c-0.7-2.7,0-4.7,2.7-6.5c2.9-2,5.5-4.3,9.3-3.5c3.5,0.7,6.9,1.6,10.4,2.4c6.5,1.5,12.9,3.7,19.5,4.5
				c9.2,1.1,18.4-0.1,27-4.2c4.4-2.1,8.8-4.3,13.3-6.4c0.8-0.4,1.7-0.8,2.3-1.4c3.9-4.1,8.8-6.5,14.1-7.7c4.6-1.1,9.4-1.9,13.9,1.1
				C315.1,254.2,314.9,257,315.2,259.9z"/>
			<path class="st0" d="M324.4,76.9c-2.4,3.8-4.8,7.5-7,11.2c-1.1,1.8-1.9,3.7-2.7,5.7c-1.6,4.2-3.1,8.5-4.7,12.8
				c-3.7,10.2-5.9,20.7-6.9,31.5c-0.4,3.9,0.3,7.9,0.5,11.9c0.1,1.6,0.2,3.2-1.7,3.8c-1.8,0.6-2.2-1.1-3.2-2c-2.9-2.6-6-5.1-9.3-7.1
				c-4.7-2.9-9.6-5.6-14.5-8.1c-1.4-0.7-3.1-0.6-4.6-1.1c-1.2-0.5-2.8-1.1-3.3-2.1c-0.4-0.7,0.6-2.3,1.2-3.3
				c1.2-2.1,2.3-4.2,3.8-6.1c5.1-6.3,10.2-12.6,15.6-18.7c3.7-4.2,8.3-7.6,12-11.8c3-3.4,6-6.7,9.9-9.1c1.7-1.1,3.7-1.8,5.4-2.9
				c1.6-1,3.2-2.2,4.5-3.6C320.7,76.4,321.8,75.2,324.4,76.9z"/>
			<path class="st0" d="M221.5,247.6c5.8-1.4,8.4-4.5,7.6-8.7c-0.7-3.5-4.9-5.8-9.9-5.8c1.9-1,3.7-2,5.6-2.9
				c6.5-3.1,13.5-3.8,20.5-4.6c8.5-1.1,17.1-1.4,25.6,0.4c2.5,0.5,5.1,1.7,7.3,3.1c4.6,3,4.7,8.9,0.4,12.2
				c-5.9,4.4-12,8.7-18.1,12.8c-4.6,3.2-9.5,6.1-14.2,9.1c-2.3,1.4-4.6,1.4-6.8-0.1C232.9,258.6,226.2,254.3,221.5,247.6z"/>
			<path class="st0" d="M266.6,334.1c-7,1.4-14.7-0.8-22.3-3.7c-3.1-1.2-4.1-3.5-2.4-5.5c1.2-1.5,2.4-2.9,3.5-4.5
				c1.4-1.9,2.6-4.1,4.2-5.9c0.6-0.7,2.2-1.5,2.9-1.2c6.8,3.1,13.8,1.5,20.8,1.2c6.9-0.3,12.6-3.8,18.8-5.9c5.1-1.8,6.4-1,6.8,4.4
				c0.3,4.4,0.1,8.7-2,12.6c-0.6,1.1-1.9,2.1-3.1,2.7C285.5,332,277,334.5,266.6,334.1z M264.9,318.9c-2.2-0.1-4.4,2.3-4.5,4.8
				c-0.1,2.1,1.1,3.3,3.2,3.5c2.4,0.2,4.5-2,4.6-4.5C268.3,320.6,266.8,319,264.9,318.9z M284.9,322.4c0-0.4,0-0.9,0-1.3
				c-1.1-0.8-2.2-2-3.3-2.1c-0.8,0-2.2,1.5-2.4,2.5c-0.3,1.5,0.6,3.3,2.4,3.1C282.8,324.5,283.8,323.2,284.9,322.4z M249.8,325.7
				c1.2-1.6,2.4-2.6,2.3-3.4c-0.1-1-1.4-1.8-2.1-2.7c-0.7,0.8-2,1.6-2.1,2.5C247.8,322.9,248.8,323.9,249.8,325.7z M293.9,314.1
				c-1,1.5-2,2.5-1.9,3.2c0.1,0.8,1.3,1.5,2,2.3c0.7-0.8,1.9-1.5,2-2.3C296.1,316.5,295,315.6,293.9,314.1z"/>
			<path class="st0" d="M356.5,343.9c3.4,5.9,6.4,11.5,6.5,18.5c0,5.4,1.5,10.8,1.9,16.2c0.5,6.6,0.5,13.2-2.6,19.4
				c-0.7,1.3-0.8,2.9-1.1,4.3c-0.3,1.3-0.1,2.8-0.7,3.9c-0.7,1.2-2.1,2.8-3.3,2.9c-1.2,0.1-3.2-1-3.8-2.2c-2.3-3.9-2.5-8.3-0.9-12.4
				c2.9-7.3,4.4-14.8,4.6-22.7c0.2-8.1,0.4-16.2-2.4-24.1C353.9,345.8,354.3,345.3,356.5,343.9z"/>
			<path class="st0" d="M224.5,206.7c-0.7,4.2-1.3,8.1-2.2,11.8c-0.2,0.8-1.8,2-2.4,1.8c-1.3-0.3-2.8-1.2-3.5-2.3
				c-1.1-1.6-2-3.5-2.1-5.4c-0.3-5.2-0.3-10.4,0-15.6c0.1-1.9,1.1-3.9,3.5-4.1c2.5-0.2,3.7,1.6,4.3,3.6
				C223.1,199.9,223.7,203.4,224.5,206.7z"/>
		</g>
		<g>
			<path class="st0" d="M340.3,415.4c16.9-24.7,18.6-51.3,11.9-79.3c0.3-0.1,0.6-0.1,0.9-0.2c1.4,2.4,3.1,4.7,4.2,7.2
				c6.5,14.1,9.5,29,8.2,44.6c-1.1,12.4-5.4,23.8-11.4,34.6c-2.9,5.3-6.5,10.2-9.7,15.4c-0.9,1.5-1.7,3.4-1.8,5.1
				c-0.7,14-3.5,27.6-9.1,40.6c-4.7,11.1-11.7,20.6-20.4,28.9c-0.3,0.3-0.6,0.6-1.1,1.2c1.6,0.2,2.9,0.1,4.1,0.5
				c3.9,1.2,6,6.1,4.3,10.2c-1.4,3.3-3.8,5.6-7.3,6.6c-1.4,0.4-2.8,0.8-4.2,0.7c-3.2-0.1-5.6,0.7-8.2,3c-4.7,4.3-11.1,5.2-17.3,5.6
				c-6.9,0.4-13.7-0.3-20.5-1.3c-4.2-0.6-8.6,0.7-12.9,1.1c-7.5,0.6-15,0.8-22.3-1.4c-2.1-0.6-4.4-1.3-6.1-2.6c-2.5-2-5.1-2.1-8-2
				c-4.3,0-8.6,0.1-12.8-0.4c-5.9-0.8-8.7-3.6-8.7-7.7c0-4.7,3.7-9,8.7-10.2c0.5-0.1,1-0.2,1.8-0.3c-1.4-2.1-2.8-3.9-4-5.9
				c-10.4-16.9-17.9-35-20.6-54.8c-2.9-20.9-0.5-41.3,6.3-61.2c7.4-21.8,18.6-41.5,31.8-60.2c1.3-1.8,1.3-2.9,0.2-5.1
				c-1.8-3.4-2.9-7.2-3.7-11c-0.5-2.2-0.9-3.7-3-5.1c-11.7-8.1-21-18.5-27.1-31.5c-10.4-22.1-12.9-45.1-8-69c0.3-1.5,0-2.2-1.3-3
				c-20.5-13.4-32.5-32.3-35.8-56.5c-1-7.5-0.1-15.3-0.1-22.9c0-2.3,1.3-3.2,3.2-4c8.1-3.1,16.6-4.4,25.2-4.6
				c21.1-0.4,40.7,4.6,58.5,16c0.6,0.4,1.7,0,2.5,0c0.2,0,0.3-0.2,0.4-0.3c5.5-2.7,8.8-7,10.4-13c1.1-4.5,4-8.1,9-8.9
				c1.5-0.2,3.9,0,4.6,0.9c0.8,1.1,0.5,3.3,0.3,4.9c-0.1,1.2-1,2.2-1.6,3.7c2.1-0.7,3.9-1.4,5.8-1.7c0.9-0.2,2.3,0.2,2.8,0.8
				c0.5,0.7,0.4,2.2,0,2.9c-1.1,2.1-2.6,4-3.5,5.3c1.9,0.3,5.4,1,9,1.5c0.6,0.1,1.7-0.5,2-1c13.7-23.5,32.3-42.1,55.8-55.8
				c3.3-1.9,4.2-1.6,5.2,2.1c2.8,10.4,4.4,21,4.8,31.7c1,22.9-1.6,45.5-7.4,67.6c-0.5,2-0.3,3.5,0.6,5.3c10.4,20.5,15.5,42,12.3,65
				c-2.9,21-12.8,38-29.6,51c-3.5,2.7-6.9,5.4-9.7,7.7c0.8,4.5,1.8,8.4,2,12.4c0.2,4.5-2.1,7.8-6.5,9.8c0.6,1,1.1,1.8,1.6,2.6
				c7.7,11.4,15.8,22.5,23.1,34.1c9.3,14.8,16.1,30.9,20.6,47.8c0.1,0.5,0.3,1,0.5,1.5C339.5,414.7,339.8,414.9,340.3,415.4z
				 M301.1,518.2c-0.1-0.2-0.3-0.4-0.4-0.6c9.7-4.1,16.6-11.5,22.2-20c17.9-27.1,22-56.4,13-87.6c-6.1-21.2-16.2-40.6-28.8-58.6
				c-5.1-7.2-10.2-14.4-15-21.1c-5.7,1.4-11.1,3.2-16.6,4.1c-11.4,1.9-22.6,1.7-33.1-4c-1.5-0.8-2.4-0.4-3.5,0.7
				c-4.3,4.1-9.3,5-14.8,3.1c-1.5-0.5-2.9-1.4-4.4-2.1c-0.3,0.4-0.7,0.6-0.9,1c-13.7,19.3-25.5,39.7-32.8,62.3
				c-3.7,11.4-6.4,23.1-6.9,35.1c-1,21.4,3.4,41.7,12.5,61.1c3.9,8.3,8,16.6,14.2,23.6c2.7,3.1,6.2,5.4,9.4,8.1
				c-2.9-1.3-5.8-2.7-8.6-4.4c-2.6-1.6-5.1-1.9-7.8-0.3c-3.3,1.9-5,4.7-4.5,7.8c0.5,3.1,3.1,3.9,5.6,4.6c0.7,0.2,1.4,0.4,2.1,0.4
				c4.9,0,9.8,0,14.8,0c0-0.7,0-1.4,0-2.1c0-5.5,2.8-8.3,8.2-8.2c1.8,0,3.6,0.2,5.3,0.5c2.2,0.3,4.4,0.8,6.8,1.2
				c-5.7-8.4-11.2-16.4-16.6-24.5c-5.7-8.6-10.8-17.4-14.3-27.2c-7.3-20.4-11.1-41.5-11.1-63.3c0-5.7,0.5-11.4,0.7-17.1
				c0.2,0,0.5,0,0.7,0c0.1,0.9,0.2,1.7,0.3,2.6c0.1,4.6,0.3,9.3,0.3,13.9c-0.1,13.3,1.7,26.3,4.3,39.3c3.6,18,10.1,34.8,20.4,50
				c7,10.3,14.5,20.4,21.7,30.6c0.2,0.2,0.3,0.5,0,0.1c-3.6-1-7.4-2.3-11.3-3.2c-2.6-0.6-5.3-0.9-7.9-1c-2.4-0.1-4.3,1.1-5,3.6
				c-0.7,2.5-0.7,5,1.9,6.3c2.7,1.5,5.5,3,8.5,3.7c8.6,2.2,17.4,1.4,26.1,0.4c2.2-0.3,3.4-1.5,3.4-4.2c-0.1-35.6-0.1-71.1-0.1-106.7
				c0-1.5-0.8-3.3-1.7-4.5c-3.5-4.6-7.2-8.9-10.8-13.4c0.1-0.1,0.2-0.1,0.2-0.2c4.5,4.5,9,8.9,13.6,13.5c4.7-4.5,9.3-8.8,13.2-12.6
				c-3,3.7-6.4,8-10,12.2c-1.4,1.7-2,3.3-2,5.5c0.1,35,0,70,0,105.1c0,3.6,0.4,4.3,4,5c9.1,1.8,18.3,1.9,27.3-0.7
				c2.7-0.8,5.2-2.6,7.7-4.1c0.7-0.4,1.2-1.8,1.2-2.7c0-4.8-2.6-7-7.4-6.2c-6,1-12.3,1.1-18,5.5c0.6-1,0.8-1.3,1-1.6
				c7.1-10,14.4-20,21.4-30.2c3.5-5.2,6.8-10.7,9.5-16.4c9-18.9,13.2-39,14.8-59.7c0.7-9.1,0.6-18.2,0.9-27.3c0-0.9,0.2-1.8,0.3-2.7
				c0.7,2.4,1,4.8,1.1,7.2c0.4,16.1-0.2,32.1-3.6,47.9c-3.7,17.2-9.1,33.6-18.9,48.4c-3.4,5.1-6.8,10.3-10.3,15.4
				c-2.9,4.3-5.9,8.6-8.9,12.9c4.2-0.5,8.3-1.2,12.3-1.4c4.1-0.2,6.3,1.3,7.3,5.2c0.7,2.5,1.9,3.3,4.3,3c1.1-0.2,2.2-0.1,3.2-0.2
				c3.5-0.5,6.2-2.1,7.7-5.4c1.7-3.8-0.3-7.4-4.3-7.9c-2.7-0.4-5.2-0.3-7.8,1.1C304.7,517.7,302.8,517.8,301.1,518.2z M242.3,131
				c0.9-1.3,1.8-2.6,2.6-3.9c1.6-2.6,3.4-5.1,4.7-7.8c1.2-2.4,0.2-3.6-2.5-3.1c-2.9,0.5-4.9,2.2-6.1,4.7c-1.5,3-2.5,6.1-4,9.1
				c-0.9,1.7-2.1,3.4-3.6,4.4c-11.2,7.4-21,16.3-29.6,26.5c-11.2,13.2-20,27.8-25.3,44.3c-4.7,14.8-5.2,30-2.9,45.3
				c3.4,22.2,12.6,41.2,30.1,55.8c2,1.7,4.2,3.2,6.7,5.1c1.3-7.3,3.2-13.9,8.4-19.2c-9.6-2.2-15.6-8.3-20-16.2
				c-3-5.3-1.7-9.5,4.1-11.5c2.9-1,6.2-1.6,9.2-1.2c6,0.9,11.9,2.3,17.7,4.1c15.3,4.9,29.6,3,43.3-5c4.5-2.7,9-5.5,13.5-8.3
				c5.2-3.2,10.7-5.2,16.9-5.3c6.1,0,9.7,3,10.7,9c0.8,4.2,0.1,8.2-1.4,12.1c-4.3,11.2-13,18.1-23.2,23.5c-7.5,4-15.7,5.3-24,6
				c-5.6,0.5-12.4,6-14.2,11.7c1.3,0.4,2.6,1.1,4,1.3c8.9,1.8,17.6,1.1,26.2-1.6c8.9-2.8,16-8.3,23.2-14
				c18.8-14.7,28.7-34.2,29.4-57.7c1-34.1-11-63.1-36.7-85.9c-11.1-9.9-24-16.7-38.9-19.2c-3.6-0.6-7.3-1-11.3-1.5
				c1.8-1.4,3.4-2.3,4.6-3.5c1.3-1.3,2.3-2.8,3.4-4.3c-0.2-0.2-0.4-0.5-0.6-0.7C251.1,124.9,247.1,128.5,242.3,131z M179.4,195.7
				c10.4-23,24.9-41.7,44-56.8c-13.7-14.7-66.1-21.8-82.8-11.1C160.2,146.3,173.3,168.6,179.4,195.7z M265.2,297.4
				c10.2-0.4,19.8-2.3,28.5-7.6c9-5.5,16.4-12.3,19.7-22.8c1.1-3.5,1.3-7,0.1-10.5c-1.3-3.9-3.5-5.4-7.6-5.5
				c-7.2-0.2-13.3,2.9-19.2,6.6c-4.5,2.9-9.1,5.7-13.8,8.2c-11.8,6.3-24.1,8.4-37.2,4.7c-6.6-1.9-13.3-3.6-20-5.1
				c-4-0.9-8-0.5-11.7,1.7c-2.7,1.6-3.2,3.3-2.3,6.3c2.6,8.8,8.9,13.5,17.2,16c2,0.6,3.9,0.5,5.9-0.7c5-3.1,10.2-4.5,15.1,0.4
				c4.9-3.3,10.2-5,16-4.9c5.2,0.1,8.9,3.6,9.4,8.8C265.3,294.4,265.2,295.8,265.2,297.4z M322.1,176.8c8.9-17.5,10.7-85.6,2.6-98
				c-0.4,0.4-0.7,0.8-1,1.3c-13.8,22.5-20.1,46.9-18.9,73.3c0.1,1.3,1,2.6,1.8,3.7c3.9,4.8,7.9,9.4,11.8,14.2
				C319.7,172.8,320.8,174.8,322.1,176.8z M302.3,152.4c-0.6-26.4,5.7-51,19.7-74.1c-18.6,9.3-52,43.6-53.8,54.7
				c6,2.7,12.1,5,17.7,8.2C291.6,144.4,296.8,148.5,302.3,152.4z M229.1,312.3c1.5-7.7,5-14.5,10.1-20.4c-3-4-6.4-5-10.7-2.7
				c-6.6,3.6-11.6,8.6-12.8,16.5c-0.4,2.8-0.7,5.7-1,8.5c-0.4,4.6,0.8,8.9,3.4,12.7c5.3,7.9,16.3,8.2,21.1,0.5
				c2.8-4.4,5.3-9.1,8.5-13.3c4.6-6,9.6-11.7,14.5-17.5c0.5-0.6,1.1-1.4,1.2-2.2c0.3-4.3-2.8-7.8-7.2-8c-4.4-0.2-8.5,0.8-12.3,2.9
				c-0.9,0.5-1.7,1.5-2.4,2.3C236.4,298.1,232,304.8,229.1,312.3z M175.3,206.8c2.6-4.7,2.9-7.5,1.8-12.2
				c-5.5-23.1-16.5-43.2-32.9-60.4c-1.4-1.4-2.9-2.8-4.4-4.3C132.2,153.2,153.3,198.6,175.3,206.8z M241.8,327.4
				c0.9,0.5,1.6,1,2.3,1.3c17.8,7.2,34.9,5.4,51.3-4.2c1.1-0.6,2.1-2.4,2.1-3.7c0.1-3.3-0.3-6.5-0.8-9.8c-0.4-2.4-1.3-2.8-3.5-1.7
				c-12.8,6.2-26.2,7.8-40.2,5.1c-1.8-0.3-2.8,0.1-3.7,1.6C247,319.8,244.4,323.4,241.8,327.4z M356.6,347.5
				c2.6,22.1,2,28.5-4.3,49.2c-1.1,3.5-0.6,7.1,1.7,10.2c1.7,2.2,3.3,2.1,4.4-0.4c1-2.2,1.8-4.5,2.5-6.7c2.5-7.8,2.8-15.8,2.5-23.8
				C363.1,366,360.6,356.6,356.6,347.5z M349.9,403.1c-2.3,4.2-3.8,8.7-6.8,11.7c-2.9,3-2.4,5.6-1.9,8.8c0.6,4,1,8,1.5,12.6
				c5.7-8.4,11-16.3,14.4-25.5C352.5,410.1,351.3,406.6,349.9,403.1z"/>
			<path class="st0" d="M258.6,220c-9.6-16.6-12.3-33.9-8.2-52.2c0.6-2.7,1.8-5.4,3.2-7.9c5.7-10.3,16.5-14.3,27.7-10.3
				c12,4.2,18.6,13.3,22.3,25c2.9,9.5,4,19.3,3.7,29.1c-0.3,8.2-3.3,15.7-8.4,22.2c-3.3,4.2-7.7,6.5-13,7.1
				c-2.2,5.8-6.5,9.9-11.3,13.2c-9,6.3-18.3,12.1-27.5,18c-1.1,0.7-3.3,0.9-4.5,0.3c-12.7-5.6-22.6-14.5-29.9-26.3
				c-2.2-3.5-1.2-6.3,2.5-8.9c5.7-3.9,12.2-6,18.9-7.1c7.1-1.2,14.3-1.6,21.5-2.3C256.6,219.9,257.6,220,258.6,220z M305.7,199.7
				c-1-6.7-1.6-13.5-2.9-20.1c-1.6-7.8-4.7-15-10.4-20.8c-4.6-4.6-10.1-7.8-16.6-8.4c-11.3-1-18.6,4.1-22.5,15.2
				c-3.9,11.1-3.1,22.3-0.7,33.5c1.3,6,3.2,11.9,6.7,17.1c1.5,2.2,3.3,3.6,6.2,3.8c4.4,0.4,8.8,1.3,13.1,2.5c3.1,0.9,6.2,2.3,7,6.2
				c0.4,1.7,1.7,1.9,3.4,1.3c4.6-1.6,8.1-4.5,10.4-8.8C302.9,214.7,305.6,207.7,305.7,199.7z M257.4,221.6
				c-7.2,0.8-14.1,1.2-20.8,2.3c-7,1.1-13.8,3.1-19.8,7c-3.4,2.2-3.9,4-1.7,7.3c6.8,10.3,15.8,18.3,26.9,23.9
				c2.1,1.1,3.9,1.1,5.9-0.3c7.3-4.9,14.8-9.6,22-14.7c3.6-2.5,6.9-5.4,9.9-8.5c6.5-6.9,4.9-12.6-4.5-14.6
				C269.4,222.6,263.2,222.3,257.4,221.6z"/>
			<path class="st0" d="M224.9,208.3c-0.2,2.3-0.2,4.6-0.6,6.9c-0.5,3.5-2.2,5.3-4.8,5.5c-2.8,0.2-4.5-1.1-5.5-4.8
				c-1.8-6.5-1.5-13.1,0-19.6c0.3-1.4,1.9-3.3,3.1-3.4c1.4-0.2,3.5,0.9,4.5,2.1c2.3,2.8,3,6.4,3.1,10c0,1.1,0,2.1,0,3.2
				C224.8,208.3,224.8,208.3,224.9,208.3z M214.9,206.3c0.3,2.7,0.5,5.7,1.1,8.6c0.3,1.7,0.9,3.8,3.2,3.7c2.4,0,2.8-2.1,3.2-4
				c0.1-0.4,0.2-0.9,0.2-1.3c-0.3-4.5-0.6-9-1-13.5c-0.1-1.2-0.7-2.4-1.4-3.4c-0.6-0.7-1.7-1.4-2.6-1.4c-0.5,0-1.4,1.3-1.6,2.1
				C215.5,200.1,215.2,203,214.9,206.3z"/>
			<path class="st0" d="M285.4,197.7c0.2,5.6-0.3,11-2.7,16.2c-2.2,4.9-7.1,5.7-10.1,1.2c-1.9-2.9-3.3-6.6-3.6-10.1
				c-0.8-7.7,0.2-15.3,2.8-22.6c0.4-1,0.8-2,1.3-2.9c1.7-3,3.7-3.2,6.3-0.9c3.9,3.6,5.7,8.1,6,13.3
				C285.4,193.8,285.4,195.8,285.4,197.7z M275.7,179.1c-0.5,0.9-1,1.7-1.4,2.6c-3.2,7.8-4,15.9-3.2,24.1c0.3,2.9,1.8,6,3.5,8.4
				c2,2.8,4.5,2.3,5.9-0.9c3.6-8.3,4.3-16.9,2-25.6C281.7,184.1,279.9,180.8,275.7,179.1z"/>
		</g>
		<g>
			<path class="st0" d="M300.9,307.8c3,9.3,2.4,15.4-2.5,22.7c19.9,21.3,32.9,46.8,43,74.3c13.6-25.9,14.5-52.3,5.6-79.4
				c8.7,9.3,15.5,19.5,18.2,32c4.5,20.6,4,40.8-4,60.5c-3.3,8.2-8.5,15.2-13.8,22.2c-0.8,1.1-1.5,2.6-1.5,4
				c-1.1,19.5-5.8,37.9-17.2,54.2c-3,4.4-6.8,8.2-10.2,12.3c5.6,4,7.1,7.6,5.4,13.6c-1.5,5.4-7.7,10.3-13.7,10.8
				c-5.9,0.6-5.8,0.6-11,4c-7.1,4.6-15,4.8-23,3.8c-3.8-0.5-7.5-1.9-11.2-2.5c-1.6-0.3-3.5-0.1-5,0.5c-13.1,4.7-26.1,5.8-38.4-2
				c-3.7-2.3-7-2.5-10.9-2.7c-4.9-0.2-9.8-0.8-14.6-1.6c-4.8-0.8-7.3-4.3-8.1-8.9c-0.9-4.6,1.3-7.9,5.1-10.4
				c1.2-0.8,2.4-1.5,3.8-2.3c-1.5-2.1-2.9-4.1-4.2-6.2c-14.9-23.7-21-49.6-19.7-77.4c0.5-11.6,2.5-22.9,6.4-33.8
				c7.3-20.5,17-39.9,30.6-57.1c3.3-4.1,5.3-7.5,1.9-12.7c-1.6-2.4-1.5-5.8-2.3-8.7c-0.3-0.9-0.8-2-1.5-2.5
				c-22-14.5-33.4-35.6-38.1-60.9c-2.5-13.5-2.6-27,0.8-40.4c0.4-1.7-0.3-2.5-1.4-3.3c-15.3-10.9-25.3-25.7-31.3-43.3
				c-4.2-12.5-5.3-25.2-3.4-38.3c0.5-3.4,1.2-5.3,4.8-6.5c17.3-6.2,34.9-7.4,52.7-2.9c11.1,2.8,21.8,6.9,31.5,13.1
				c0.5,0.3,1.5,0.4,2.2,0.1c1.7-0.6,3.3-1.4,4.8-2.4c0.8-0.5,1.4-1.5,1.7-2.5c2.1-6.4,4.9-12.3,11.5-15.4c0.4-0.2,0.8-0.4,1.2-0.6
				c6.8-2.8,10.3-1,12,6c6.7,1.8,7.5,4.5,3.4,11.6c1.9,1.2,3,0.2,4.2-1.3c6.5-8.5,12.8-17.2,19.7-25.4
				c10.7-12.6,23.8-22.3,38.7-29.5c1.2-0.6,2.4-1,4.2-1.8c1.1,3.7,2.2,7.2,3.1,10.7c7.3,30.6,5.6,60.8-3.5,90.7
				c-0.8,2.5-0.7,4.5,0.7,7.1c3.1,6,5.5,12.4,7.9,18.7c7.5,19.7,8.2,39.8,2.9,60c-4.8,18.6-15.3,33.5-31.2,44.3
				c-1.4,1-2.7,2-4.1,3.1C302.4,306.4,301.7,307.1,300.9,307.8z M258.6,122.6c-2.9-0.8-4.6,1.1-6.7,2c-0.9,0.4-2.1,0-3.1,0
				c0.1-1,0-2.2,0.3-3.1c0.4-1.1,1.4-1.9,1.6-3c0.2-0.9,0.1-2.2-0.4-2.9c-0.4-0.5-1.8-0.5-2.6-0.2c-6.5,2.2-9.5,7.2-10.7,13.5
				c-0.4,2.4-1.2,4.2-3.8,4.9c-1.3,0.3-3,0.7-3.6,1.7c-2.7,4.3-5.4,2-8.2,0.3c-0.7-0.4-1.4-0.8-2.1-1.2
				c-24.7-13.6-50.3-18.3-77.6-8.9c-2.1,0.7-2.8,1.7-3.2,3.9c-1.1,6.3-0.7,12.5,0.1,18.7c2.9,23.6,13.5,43,32.5,57.7
				c0.7,0.6,1.7,1.1,2.6,1.2c2.8,0.2,2.9,1.8,2.4,3.9c-6.4,23.6-3.6,46.4,6.9,68.3c6.6,13.7,16,25.1,29.6,32.5
				c0.7,0.4,1.5,1.5,1.5,2.3c0.1,6.6,1.6,12.7,7.1,17.1c-0.9,1.2-1.7,2.2-2.4,3.2c-11,13.8-21,28.3-27.7,44.7
				c-3.7,9.1-6.6,18.6-9.6,28c-1.5,4.7-2.6,9.5-3.2,14.3c-2.4,19.1-1,37.8,6.2,55.8c2.6,6.6,4.6,13.5,7.8,19.8
				c2.8,5.5,6.9,10.3,10.4,15.5c0.5,0.8,0.9,1.9,0.9,2.8c0,0.4-1.1,0.9-1.8,1.2c-1.9,0.8-4,1.4-5.8,2.3c-2.2,1.1-3.7,2.9-3.5,5.5
				c0.2,2.9,2.5,4.9,4.6,5.6c5.6,2,11.6,2.5,17.6,2.1c-1.4-7.9,1.4-12.1,9.1-13c2.3-0.3,4.8,0.1,7,0.9c3,1,5.9,2.5,8.8,3.9
				c0.7,0.3,1.3,0.9,1.9,1.3c-0.1,0.2-0.2,0.4-0.4,0.6c-1.2-0.4-2.3-0.7-3.5-1.1c-4.7-1.5-9.5-2-14.3-1.1c-5.4,1-6.3,4.5-3.1,8.4
				c1.4,1.7,3.2,3.2,5.2,4.1c4.4,2.2,8.7,4.1,14,2.8c4-1,8.5-0.1,12.5-1.3c7.9-2.4,15.4-1.9,23.2,0.5c5.4,1.7,11.2,1,16.7-0.4
				c3.4-0.9,6.2-2.7,8.4-5.4c1.9-2.3,2.2-4.9,1-7.5c-1-2.3-3.5-2.6-5.5-2.4c-3.8,0.4-7.5,1.2-11.2,2c-2,0.4-4,1.3-6.4,2.1
				c0.5-0.7,0.6-1.1,0.8-1.3c4.6-5.2,16.1-8.4,22.5-5.9c1.5,0.6,3.1,2.1,3.6,3.5c0.9,2.3,1.1,5,1.6,7.6c6.7,1.7,13.8-3.8,13.4-10.7
				c-0.2-3.4-2.2-5.1-5.6-5c-2.6,0.1-5.2,0-7.8,0c0,0,0-0.2,0.1-0.3c0.6-0.5,1.2-1.1,1.8-1.6c12.2-9.4,21.1-21.3,26.2-35.8
				c1.8-5.2,3.4-10.6,4.4-16c0.9-5.2,2.7-10.3,1.2-16c-0.7-2.7,0.9-6.5,2.4-9.2c3.3-5.7,7.5-10.8,11-16.4c2.5-4,4.9-8.1,6.4-12.5
				c2.8-8.2,3.4-16.8,3.4-25.4c0-13-2.3-25.6-7.3-37.6c-0.4-1-1.1-1.9-1.7-2.9c-0.2,3,0.1,5.8,0.7,8.5c2.5,11.2,1.4,22.4-0.1,33.5
				c-1.3,9.4-5.2,18.2-10,26.4c-0.6,1-1,2.1-1.5,3.1c-1.2,2.5-2.4,5.1-3.6,7.6c-0.8-1.1-1-2.2-1.3-3.2c-2.1-7-3.4-14.4-6.5-20.9
				c-6.2-13.1-13-25.9-20.2-38.4c-4.9-8.4-11-16.1-16.6-24.1c-1.2-1.8-2.4-3.6-3.8-5.8c4,0,5-2.6,5.8-5.2c0.4-1.3,0.7-2.7,0.6-3.9
				c-0.3-3-0.9-5.9-1.4-8.9c-0.3-1.9-1.5-3.8,0.7-5.4c4.3-3,8.4-6.3,12.9-9c4.4-2.6,7.5-6.4,10.2-10.4
				c10.8-15.9,16.3-33.4,15.3-52.8c0-0.4,0-1,0.2-1.3c1.9-3,1.3-6.2,0.9-9.3c-1.7-12.5-6.1-24.2-11.1-35.7c-1.4-3.3-4-6.4-4.2-9.7
				c-0.2-3.5,1.7-7.2,2.7-10.8c7.6-26.9,8.4-54.1,2.1-81.4c-0.5-2.2-1.2-4.4-1.8-6.8c-1.2,0.6-2,0.9-2.8,1.4
				c-11.3,5.9-21.7,13.1-30,22.6c-8.6,9.8-16.4,20.3-24.4,30.5c-1.7,2.2-3.6,3.1-6.2,2.4c-3.2-0.8-6.3-1.5-10-2.4
				C253.2,128.2,258,127.1,258.6,122.6z"/>
		</g>
	</g>
</g>
</svg>
